<svg width="300" height="300" viewBox="0 0 300 300" fill="none" xmlns="http://www.w3.org/2000/svg">
<mask id="mask0_1_2" style="mask-type:alpha" maskUnits="userSpaceOnUse" x="22" y="22" width="255" height="255">
<rect x="22" y="22" width="255" height="255" rx="33" fill="#D9D9D9"/>
</mask>
<g mask="url(#mask0_1_2)">
<path d="M192 22H277V107H192V22Z" fill="#CF0000"/>
<path d="M107 107H192V192H107V107Z" fill="#CF0000"/>
<path d="M22 192H107V277H22V192Z" fill="#CF0000"/>
<path d="M192 107H277V192H192V107Z" fill="#49C000"/>
<path d="M107 22H192V107H107V22Z" fill="#EFF319"/>
<path d="M22 22H107V107H22V22Z" fill="#FF4004"/>
<path d="M192 192H277V277H192V192Z" fill="#FF4004"/>
<path d="M107 192H192V277H107V192Z" fill="white"/>
<path d="M22 107H107V193H22V107Z" fill="#0904FF"/>
<mask id="path-3-outside-1_1_2" maskUnits="userSpaceOnUse" x="34" y="71" width="229" height="160" fill="black">
<rect fill="white" x="34" y="71" width="229" height="160"/>
<path d="M105.295 77.5455H122.909V181.523C122.909 190.803 121.205 198.687 117.795 205.173C114.386 211.66 109.58 216.584 103.378 219.946C97.1752 223.308 89.8598 224.989 81.4318 224.989C73.4773 224.989 66.3987 223.545 60.196 220.656C53.9934 217.721 49.1165 213.554 45.5653 208.156C42.0142 202.759 40.2386 196.343 40.2386 188.909H57.5682C57.5682 193.028 58.5862 196.627 60.6222 199.705C62.7055 202.735 65.5464 205.102 69.1449 206.807C72.7434 208.511 76.839 209.364 81.4318 209.364C86.4981 209.364 90.8068 208.298 94.358 206.168C97.9091 204.037 100.608 200.912 102.455 196.793C104.348 192.626 105.295 187.536 105.295 181.523V77.5455ZM158.207 223V77.5455H207.355C218.766 77.5455 228.094 79.6051 235.338 83.7244C242.63 87.7964 248.027 93.3125 251.531 100.273C255.035 107.233 256.787 114.998 256.787 123.568C256.787 132.138 255.035 139.927 251.531 146.935C248.075 153.942 242.724 159.529 235.48 163.696C228.236 167.815 218.955 169.875 207.639 169.875H172.412V154.25H207.071C214.884 154.25 221.157 152.901 225.892 150.202C230.627 147.503 234.06 143.857 236.19 139.264C238.368 134.624 239.457 129.392 239.457 123.568C239.457 117.744 238.368 112.536 236.19 107.943C234.06 103.35 230.603 99.7519 225.821 97.1477C221.039 94.4962 214.694 93.1705 206.787 93.1705H175.821V223H158.207Z"/>
</mask>
<path d="M105.295 77.5455H122.909V181.523C122.909 190.803 121.205 198.687 117.795 205.173C114.386 211.66 109.58 216.584 103.378 219.946C97.1752 223.308 89.8598 224.989 81.4318 224.989C73.4773 224.989 66.3987 223.545 60.196 220.656C53.9934 217.721 49.1165 213.554 45.5653 208.156C42.0142 202.759 40.2386 196.343 40.2386 188.909H57.5682C57.5682 193.028 58.5862 196.627 60.6222 199.705C62.7055 202.735 65.5464 205.102 69.1449 206.807C72.7434 208.511 76.839 209.364 81.4318 209.364C86.4981 209.364 90.8068 208.298 94.358 206.168C97.9091 204.037 100.608 200.912 102.455 196.793C104.348 192.626 105.295 187.536 105.295 181.523V77.5455ZM158.207 223V77.5455H207.355C218.766 77.5455 228.094 79.6051 235.338 83.7244C242.63 87.7964 248.027 93.3125 251.531 100.273C255.035 107.233 256.787 114.998 256.787 123.568C256.787 132.138 255.035 139.927 251.531 146.935C248.075 153.942 242.724 159.529 235.48 163.696C228.236 167.815 218.955 169.875 207.639 169.875H172.412V154.25H207.071C214.884 154.25 221.157 152.901 225.892 150.202C230.627 147.503 234.06 143.857 236.19 139.264C238.368 134.624 239.457 129.392 239.457 123.568C239.457 117.744 238.368 112.536 236.19 107.943C234.06 103.35 230.603 99.7519 225.821 97.1477C221.039 94.4962 214.694 93.1705 206.787 93.1705H175.821V223H158.207Z" fill="white"/>
<path d="M105.295 77.5455V71.5455H99.2955V77.5455H105.295ZM122.909 77.5455H128.909V71.5455H122.909V77.5455ZM117.795 205.173L123.107 207.965L123.107 207.965L117.795 205.173ZM103.378 219.946L106.237 225.221L106.237 225.221L103.378 219.946ZM60.196 220.656L57.6293 226.08L57.6462 226.088L57.6633 226.095L60.196 220.656ZM45.5653 208.156L40.5528 211.454L40.5528 211.454L45.5653 208.156ZM40.2386 188.909V182.909H34.2386V188.909H40.2386ZM57.5682 188.909H63.5682V182.909H57.5682V188.909ZM60.6222 199.705L55.618 203.015L55.6476 203.06L55.6779 203.104L60.6222 199.705ZM69.1449 206.807L71.7134 201.384L71.7134 201.384L69.1449 206.807ZM94.358 206.168L91.271 201.023L91.271 201.023L94.358 206.168ZM102.455 196.793L96.9924 194.31L96.9859 194.324L96.9795 194.338L102.455 196.793ZM105.295 83.5455H122.909V71.5455H105.295V83.5455ZM116.909 77.5455V181.523H128.909V77.5455H116.909ZM116.909 181.523C116.909 190.083 115.336 196.955 112.484 202.382L123.107 207.965C127.073 200.418 128.909 191.523 128.909 181.523H116.909ZM112.484 202.382C109.606 207.859 105.634 211.899 100.519 214.671L106.237 225.221C113.527 221.27 119.167 215.461 123.107 207.965L112.484 202.382ZM100.519 214.671C95.3499 217.472 89.0551 218.989 81.4318 218.989V230.989C90.6646 230.989 99.0005 229.143 106.237 225.221L100.519 214.671ZM81.4318 218.989C74.2108 218.989 68.0192 217.681 62.7288 215.217L57.6633 226.095C64.7781 229.409 72.7437 230.989 81.4318 230.989V218.989ZM62.7628 215.233C57.4905 212.738 53.4861 209.279 50.5778 204.859L40.5528 211.454C44.7468 217.829 50.4962 222.704 57.6293 226.08L62.7628 215.233ZM50.5778 204.859C47.7637 200.581 46.2386 195.352 46.2386 188.909H34.2386C34.2386 197.334 36.2647 204.936 40.5528 211.454L50.5778 204.859ZM40.2386 194.909H57.5682V182.909H40.2386V194.909ZM51.5682 188.909C51.5682 194.064 52.8584 198.843 55.618 203.015L65.6263 196.394C64.3139 194.41 63.5682 191.993 63.5682 188.909H51.5682ZM55.6779 203.104C58.4101 207.078 62.1031 210.11 66.5764 212.229L71.7134 201.384C68.9897 200.094 67.0009 198.392 65.5664 196.305L55.6779 203.104ZM66.5764 212.229C71.0922 214.368 76.0867 215.364 81.4318 215.364V203.364C77.5913 203.364 74.3945 202.654 71.7134 201.384L66.5764 212.229ZM81.4318 215.364C87.3431 215.364 92.7733 214.116 97.4449 211.313L91.271 201.023C88.8404 202.481 85.6531 203.364 81.4318 203.364V215.364ZM97.4449 211.313C102.144 208.493 105.628 204.38 107.93 199.247L96.9795 194.338C95.5875 197.443 93.6744 199.581 91.271 201.023L97.4449 211.313ZM107.917 199.275C110.258 194.125 111.295 188.136 111.295 181.523H99.2955C99.2955 186.936 98.4391 191.127 96.9924 194.31L107.917 199.275ZM111.295 181.523V77.5455H99.2955V181.523H111.295ZM158.207 223H152.207V229H158.207V223ZM158.207 77.5455V71.5455H152.207V77.5455H158.207ZM235.338 83.7244L232.372 88.9402L232.392 88.9516L232.413 88.9629L235.338 83.7244ZM251.531 100.273L246.172 102.971L246.172 102.971L251.531 100.273ZM251.531 146.935L246.165 144.251L246.157 144.266L246.15 144.281L251.531 146.935ZM235.48 163.696L238.446 168.912L238.459 168.904L238.472 168.897L235.48 163.696ZM172.412 169.875H166.412V175.875H172.412V169.875ZM172.412 154.25V148.25H166.412V154.25H172.412ZM225.892 150.202L222.921 144.989L222.921 144.989L225.892 150.202ZM236.19 139.264L230.759 136.715L230.753 136.727L230.748 136.739L236.19 139.264ZM236.19 107.943L230.748 110.468L230.758 110.491L230.769 110.514L236.19 107.943ZM225.821 97.1477L222.912 102.395L222.932 102.406L222.952 102.417L225.821 97.1477ZM175.821 93.1705V87.1705H169.821V93.1705H175.821ZM175.821 223V229H181.821V223H175.821ZM164.207 223V77.5455H152.207V223H164.207ZM158.207 83.5455H207.355V71.5455H158.207V83.5455ZM207.355 83.5455C218.094 83.5455 226.305 85.4902 232.372 88.9402L238.304 78.5087C229.882 73.72 219.439 71.5455 207.355 71.5455V83.5455ZM232.413 88.9629C238.736 92.4943 243.247 97.1594 246.172 102.971L256.891 97.5749C252.808 89.4656 246.523 83.0985 238.263 78.4859L232.413 88.9629ZM246.172 102.971C249.214 109.013 250.787 115.84 250.787 123.568H262.787C262.787 114.156 260.856 105.453 256.891 97.5749L246.172 102.971ZM250.787 123.568C250.787 131.296 249.214 138.153 246.165 144.251L256.898 149.618C260.856 141.701 262.787 132.981 262.787 123.568H250.787ZM246.15 144.281C243.257 150.146 238.777 154.878 232.489 158.495L238.472 168.897C246.672 164.181 252.892 157.739 256.912 149.589L246.15 144.281ZM232.514 158.48C226.441 161.934 218.273 163.875 207.639 163.875V175.875C219.638 175.875 230.031 173.697 238.446 168.912L232.514 158.48ZM207.639 163.875H172.412V175.875H207.639V163.875ZM178.412 169.875V154.25H166.412V169.875H178.412ZM172.412 160.25H207.071V148.25H172.412V160.25ZM207.071 160.25C215.501 160.25 222.914 158.805 228.863 155.414L222.921 144.989C219.4 146.996 214.267 148.25 207.071 148.25V160.25ZM228.863 155.414C234.594 152.148 238.937 147.601 241.633 141.789L230.748 136.739C229.182 140.113 226.66 142.858 222.921 144.989L228.863 155.414ZM241.622 141.814C244.222 136.274 245.457 130.153 245.457 123.568H233.457C233.457 128.631 232.515 132.974 230.759 136.715L241.622 141.814ZM245.457 123.568C245.457 116.985 244.223 110.878 241.612 105.372L230.769 110.514C232.514 114.194 233.457 118.504 233.457 123.568H245.457ZM241.633 105.418C238.919 99.5682 234.512 95.0485 228.69 91.8784L222.952 102.417C226.694 104.455 229.2 107.133 230.748 110.468L241.633 105.418ZM228.73 91.9003C222.749 88.5836 215.287 87.1705 206.787 87.1705V99.1705C214.101 99.1705 219.329 100.409 222.912 102.395L228.73 91.9003ZM206.787 87.1705H175.821V99.1705H206.787V87.1705ZM169.821 93.1705V223H181.821V93.1705H169.821ZM175.821 217H158.207V229H175.821V217Z" fill="black" mask="url(#path-3-outside-1_1_2)"/>
</g>
</svg>
